Coordinates
version=1
nRows=13
nColumns=36
inDegrees=yes

Units are S.I. units (second, meters, Newtons, ...)
If the header above contains a line with 'inDegrees', this indicates whether rotational values are in degrees (yes) or radians (no).

endheader
time	pelvis_tilt	pelvis_list	pelvis_rotation	pelvis_tx	pelvis_ty	pelvis_tz	hip_flexion_r	hip_adduction_r	hip_rotation_r	knee_angle_r	knee_angle_r_beta	ankle_angle_r	subtalar_angle_r	mtp_angle_r	hip_flexion_l	hip_adduction_l	hip_rotation_l	knee_angle_l	knee_angle_l_beta	ankle_angle_l	subtalar_angle_l	mtp_angle_l	lumbar_extension	lumbar_bending	lumbar_rotation	arm_flex_r	arm_add_r	arm_rot_r	elbow_flex_r	pro_sup_r	arm_flex_l	arm_add_l	arm_rot_l	elbow_flex_l	pro_sup_l
      5.13750000	     -4.15286738	     -1.32949976	     -1.17430279	      0.28577175	      0.95779501	     -0.02189257	      4.25622881	     -2.61582237	     -7.32599980	      1.67071494	      0.02915948	      1.88641268	    -17.54983797	     -7.49999987	      5.19695740	     -6.86702228	     -3.27286716	      5.60660224	      0.09785367	      5.70865893	     -7.58255068	     -7.49999987	    -12.43807282	      2.17049573	     -3.25852142	     26.18251510	    -13.20758142	     20.95561530	     95.21780044	     95.56792609	     37.22667043	    -11.26891148	     38.46005775	     89.90219752	     69.57897901
      5.14166670	     -4.05249774	     -1.30587471	     -1.25752258	      0.28603863	      0.95769245	     -0.02118312	      4.02323091	     -2.63924187	     -7.48862778	      1.40275247	      0.02448265	      2.12705243	    -16.96979332	     -7.49999987	      5.10985145	     -6.84794078	     -3.28230262	      5.66070441	      0.09879793	      5.71169793	     -7.62994592	     -7.49999987	    -12.56517313	      2.14202396	     -3.10894374	     26.08353732	    -12.80675624	     20.81306618	     95.04857390	     91.78494271	     36.86610837	    -10.99248588	     38.02167837	     90.31871790	     68.25791040
      5.14583330	     -4.17081778	     -1.26388774	     -1.32168982	      0.28576676	      0.95616612	     -0.02040031	      4.11597693	     -2.65821237	     -7.26110715	      1.28775894	      0.02247563	      1.82360225	    -17.54818355	     -7.49999987	      5.26526441	     -6.81089100	     -3.15908906	      5.69064178	      0.09932044	      5.59052599	     -7.81713566	     -7.49999987	    -12.44176568	      2.08079836	     -2.89819193	     26.04915948	    -12.58497535	     19.93381570	     95.06432374	     97.45691254	     36.69367946	    -10.79085885	     37.61999604	     90.50185327	     69.81077699
      5.15000000	     -4.13878287	     -1.24275649	     -1.33677101	      0.28761985	      0.95800361	     -0.02291260	      3.97849523	     -2.71243487	     -7.24476412	      1.17032236	      0.02042598	      1.75368438	    -17.47818637	     -7.49999987	      5.26194642	     -6.76760344	     -3.13639151	      5.77994362	      0.10087905	      5.48742812	     -7.94796356	     -7.49999987	    -12.43040699	      2.12647598	     -2.76232724	     26.03655429	    -12.50803885	     19.63907939	     94.93853175	     96.06254436	     36.24096666	    -10.54704496	     37.21969935	     90.31915858	     69.31785825
      5.15416670	     -4.10831306	     -1.23878190	     -1.39389396	      0.28783494	      0.95677847	     -0.02253245	      3.87187033	     -2.74243800	     -7.09262588	      1.08483164	      0.01893388	      1.59839369	    -17.75713698	     -7.49999987	      5.23583323	     -6.73598718	     -3.08904548	      5.84656083	      0.10204174	      5.40371821	     -8.08999588	     -7.49999987	    -12.38551181	      2.10108425	     -2.66980030	     26.11839089	    -12.52132158	     19.62091473	     94.95972164	     95.10228307	     35.72391230	    -10.56771673	     36.98178795	     90.59828916	     68.98204943
      5.15833330	     -3.97427123	     -1.23069537	     -1.45639414	      0.28751106	      0.95665449	     -0.02260778	      3.65922992	     -2.78488485	     -7.37518880	      0.98956133	      0.01727110	      1.83476368	    -17.14906708	     -7.49999987	      5.11181796	     -6.70493952	     -3.35586615	      5.93812662	      0.10363986	      5.60951889	     -7.69636727	     -7.49999987	    -12.46328797	      2.04773789	     -2.55756846	     26.32525307	    -12.55041132	     19.91608619	     94.78415860	     88.68368060	     35.32974071	    -10.55636297	     36.76988698	     90.70117744	     66.89289322
      5.16250000	     -4.08179392	     -1.21414336	     -1.50663869	      0.28677849	      0.95856740	     -0.02163762	      3.75492023	     -2.81114743	     -7.50039850	      0.92445998	      0.01613487	      1.74862888	    -17.17887664	     -7.49999987	      5.26548257	     -6.67830685	     -3.35151981	      6.02860639	      0.10521903	      5.46195733	     -7.78642000	     -7.49999987	    -12.28523486	      1.99354101	     -2.37857653	     26.10555617	    -12.36836527	     19.17858064	     94.68720236	     96.72428544	     34.97582015	    -10.37235787	     36.48281062	     90.56162816	     69.09795772
      5.16666670	     -4.03489181	     -1.21577361	     -1.57681644	      0.28708301	      0.95753644	     -0.02172147	      3.68030412	     -2.80738127	     -7.34215558	      0.84007203	      0.01466202	      1.38000942	    -17.71138774	     -7.49999987	      5.28572766	     -6.68884337	     -3.51837261	      6.19000171	      0.10803591	      5.52243439	     -7.61912111	     -7.49999987	    -12.29044894	      1.94961258	     -2.26650214	     26.11482044	    -12.34294425	     19.33023413	     94.60182960	     91.98475543	     34.66205781	    -10.27025449	     36.19431938	     90.65338731	     67.62624160
      5.17083330	     -4.04136750	     -1.21077355	     -1.59073168	      0.28723845	      0.96222318	     -0.02199245	      3.67463739	     -2.80553000	     -7.37507415	      0.80839210	      0.01410910	      1.34364388	    -17.67447403	     -7.49999987	      5.33816410	     -6.69168803	     -3.50376860	      6.25836441	      0.10922906	      5.45657865	     -7.60973343	     -7.49999987	    -12.44108202	      1.90109054	     -2.16630788	     26.02927290	    -12.30453564	     19.32582435	     94.54518026	     92.00916707	     34.42689841	    -10.28453334	     36.22185927	     90.59756138	     67.63042002
      5.17500000	     -4.03810191	     -1.21914561	     -1.59060707	      0.28770946	      0.96054779	     -0.02232496	      3.62021052	     -2.80908153	     -7.71102709	      0.71307409	      0.01244549	      1.49580991	    -16.94040058	     -7.49999987	      5.44123512	     -6.70614409	     -3.52713343	      6.50111269	      0.11346582	      5.23838041	     -7.82767821	     -7.49999987	    -12.26098515	      1.89235616	     -2.13408130	     25.40212484	    -11.75067718	     18.35870745	     94.15318973	     96.42195581	     33.73493096	     -9.97954489	     35.47116992	     90.31630872	     68.36466938
      5.17916670	     -4.04295602	     -1.19418218	     -1.59456512	      0.28794617	      0.96282373	     -0.02232500	      3.60119716	     -2.84048684	     -7.81329383	      0.65627529	      0.01145416	      1.31472669	    -16.82400916	     -7.49999987	      5.51573745	     -6.68648170	     -3.62167482	      6.65414078	      0.11613667	      5.17841232	     -7.71353754	     -7.49999987	    -12.21424223	      1.80587775	     -2.05854392	     24.88471508	    -11.50564312	     18.18246421	     93.99234739	     96.22602805	     33.19964728	     -9.79211343	     35.11098357	     89.98047835	     67.97883263
      5.18333330	     -3.92498559	     -1.25433622	     -1.45315432	      0.28672734	      0.96384892	     -0.02157641	      3.43130057	     -2.78109212	     -8.52187936	      0.59635989	      0.01040844	      1.93829627	    -15.46290915	     -7.49999987	      5.54117122	     -6.75076617	     -3.31386274	      6.85694952	      0.11967635	      4.94761694	     -8.11705776	     -7.49999987	    -12.40782646	      1.90609619	     -2.17148881	     24.86006132	    -11.33600723	     18.73249719	     93.72187860	     87.00787549	     32.80821492	     -9.74948434	     34.86966079	     89.93154382	     65.25036526
      5.18750000	     -4.01178874	     -1.20603059	     -1.65593128	      0.28633881	      0.96526756	     -0.02189661	      3.57203279	     -2.79515752	     -7.93518726	      0.55076468	      0.00961266	      1.37255525	    -16.20987681	     -7.49999987	      5.64499633	     -6.76613800	     -3.77780629	      6.92739091	      0.12090578	      4.92999367	     -7.58846771	     -7.49999987	    -12.33704751	      1.76109761	     -1.80306384	     24.53902844	    -11.00740332	     17.71733258	     93.42478211	     95.35574912	     32.35378289	     -9.56113873	     34.49408480	     89.63101909	     67.36225241
